<svg width="128" height="128" viewBox="0 0 128 128" fill="none" xmlns="http://www.w3.org/2000/svg">
  <path d="M40 112C53.2548 112 64 101.255 64 88V64H40C26.7452 64 16 74.7452 16 88C16 101.255 26.7452 112 40 112Z" fill="#0ACF83"/>
  <path d="M16 40C16 26.7452 26.7452 16 40 16H64V64H40C26.7452 64 16 53.2548 16 40Z" fill="#A259FF"/>
  <path d="M16 88C16 74.7452 26.7452 64 40 64H64V88C64 101.255 53.2548 112 40 112C26.7452 112 16 101.255 16 88Z" fill="#F24E1E"/>
  <path d="M64 16H88C101.255 16 112 26.7452 112 40C112 53.2548 101.255 64 88 64H64V16Z" fill="#FF7262"/>
  <path d="M112 88C112 74.7452 101.255 64 88 64C74.7452 64 64 74.7452 64 88C64 101.255 74.7452 112 88 112C101.255 112 112 101.255 112 88Z" fill="#1ABCFE"/>
</svg>
